<svg width="24" height="25" viewBox="0 0 24 25" fill="none" xmlns="http://www.w3.org/2000/svg">
<path d="M21.08 9.38179V16.2218C21.08 17.3418 20.48 18.3818 19.51 18.9518L13.57 22.3818C12.6 22.9418 11.4 22.9418 10.42 22.3818L4.47997 18.9518C3.50997 18.3918 2.90997 17.3518 2.90997 16.2218V9.38179C2.90997 8.26179 3.50997 7.22175 4.47997 6.65175L10.42 3.22176C11.39 2.66176 12.59 2.66176 13.57 3.22176L19.51 6.65175C20.48 7.22175 21.08 8.25179 21.08 9.38179Z" stroke="#dfb85d" stroke-width="1.5" stroke-linecap="round" stroke-linejoin="round"/>
<path opacity="0.4" d="M12 11.8018C13.2868 11.8018 14.33 10.7586 14.33 9.47174C14.33 8.18492 13.2868 7.14178 12 7.14178C10.7132 7.14178 9.66998 8.18492 9.66998 9.47174C9.66998 10.7586 10.7132 11.8018 12 11.8018Z" stroke="#fff" stroke-width="1.5" stroke-linecap="round" stroke-linejoin="round"/>
<path opacity="0.4" d="M16 17.4617C16 15.6617 14.21 14.2018 12 14.2018C9.79 14.2018 8 15.6617 8 17.4617" stroke="#fff" stroke-width="1.5" stroke-linecap="round" stroke-linejoin="round"/>
</svg>
