<svg width="24" height="25" viewBox="0 0 24 25" fill="none" xmlns="http://www.w3.org/2000/svg">
<path d="M16.59 8.21176L6.31 18.4918C5.83 18.9718 5.01 18.8618 4.72 18.2518C4.2 17.1818 3.9 15.9718 3.9 14.7018C3.88 9.18176 9.48 4.46176 11.38 3.01176C11.75 2.73176 12.25 2.73176 12.61 3.01176C13.48 3.67176 15.11 5.04176 16.64 6.84176C16.98 7.24176 16.96 7.84176 16.59 8.21176Z" fill="#fff"/>
<path opacity="0.4" d="M20.1 14.7118C20.1 19.1718 16.47 22.8018 12 22.8018C10.21 22.8018 8.54 22.2218 7.19 21.2218C6.7 20.8618 6.66 20.1418 7.09 19.7118L17.16 9.64178C17.63 9.17178 18.42 9.27178 18.74 9.85178C19.56 11.3618 20.11 13.0018 20.1 14.7118Z" fill="#fff"/>
</svg>
