<svg width="16" height="16" viewBox="0 0 16 16" fill="none" xmlns="http://www.w3.org/2000/svg">
<g opacity="0.4">
<path d="M6.43335 9.20002L7.50668 10.0334C7.64668 10.1734 7.96002 10.24 8.16669 10.24H9.48668C9.90002 10.24 10.3534 9.92667 10.46 9.51334L11.2934 6.98664C11.4667 6.49998 11.1534 6.08666 10.6334 6.08666H9.24668C9.04002 6.08666 8.86669 5.91333 8.90002 5.67333L9.07335 4.56664C9.14002 4.25331 8.93335 3.90663 8.62002 3.80663C8.34002 3.69996 7.99335 3.83995 7.86002 4.04662L6.44002 6.15998" stroke="white" stroke-width="1.5" stroke-miterlimit="10"/>
<path d="M4.66675 9.20005V5.80666C4.66675 5.31999 4.87341 5.14667 5.36008 5.14667H5.70675C6.19341 5.14667 6.40009 5.31999 6.40009 5.80666V9.20005C6.40009 9.68672 6.19341 9.86005 5.70675 9.86005H5.36008C4.87341 9.86005 4.66675 9.68672 4.66675 9.20005Z" stroke="white" stroke-width="1.5" stroke-linecap="round" stroke-linejoin="round"/>
</g>
<path d="M12 12.5733H11.4933C10.96 12.5733 10.4533 12.78 10.08 13.1533L8.94 14.28C8.42 14.7934 7.57333 14.7934 7.05333 14.28L5.91333 13.1533C5.54 12.78 5.02667 12.5733 4.5 12.5733H4C2.89333 12.5733 2 11.6867 2 10.5934V3.32001C2 2.22667 2.89333 1.34003 4 1.34003H12C13.1067 1.34003 14 2.22667 14 3.32001V10.5934C14 11.68 13.1067 12.5733 12 12.5733Z" stroke="white" stroke-width="1.5" stroke-miterlimit="10" stroke-linecap="round" stroke-linejoin="round"/>
</svg>
