<svg width="24" height="25" viewBox="0 0 24 25" fill="none" xmlns="http://www.w3.org/2000/svg">
<path d="M18 7.96176C17.94 7.95176 17.87 7.95176 17.81 7.96176C16.43 7.91176 15.33 6.78176 15.33 5.38176C15.33 3.95176 16.48 2.80176 17.91 2.80176C19.34 2.80176 20.49 3.96176 20.49 5.38176C20.48 6.78176 19.38 7.91176 18 7.96176Z" stroke="#fff" stroke-width="1.5" stroke-linecap="round" stroke-linejoin="round"/>
<path d="M16.97 15.2418C18.34 15.4718 19.85 15.2318 20.91 14.5218C22.32 13.5818 22.32 12.0418 20.91 11.1018C19.84 10.3918 18.31 10.1518 16.94 10.3918" stroke="#fff" stroke-width="1.5" stroke-linecap="round" stroke-linejoin="round"/>
<path d="M5.96998 7.96176C6.02998 7.95176 6.09998 7.95176 6.15998 7.96176C7.53998 7.91176 8.63998 6.78176 8.63998 5.38176C8.63998 3.95176 7.48998 2.80176 6.05998 2.80176C4.62998 2.80176 3.47998 3.96176 3.47998 5.38176C3.48998 6.78176 4.58998 7.91176 5.96998 7.96176Z" stroke="#fff" stroke-width="1.5" stroke-linecap="round" stroke-linejoin="round"/>
<path d="M7 15.2418C5.63 15.4718 4.12 15.2318 3.06 14.5218C1.65 13.5818 1.65 12.0418 3.06 11.1018C4.13 10.3918 5.66 10.1518 7.03 10.3918" stroke="#fff" stroke-width="1.5" stroke-linecap="round" stroke-linejoin="round"/>
<path d="M12 15.4317C11.94 15.4217 11.87 15.4217 11.81 15.4317C10.43 15.3817 9.32996 14.2517 9.32996 12.8517C9.32996 11.4217 10.48 10.2717 11.91 10.2717C13.34 10.2717 14.49 11.4317 14.49 12.8517C14.48 14.2517 13.38 15.3917 12 15.4317Z" stroke="#fff" stroke-width="1.5" stroke-linecap="round" stroke-linejoin="round"/>
<path d="M9.08997 18.5817C7.67997 19.5217 7.67997 21.0617 9.08997 22.0017C10.69 23.0717 13.31 23.0717 14.91 22.0017C16.32 21.0617 16.32 19.5217 14.91 18.5817C13.32 17.5217 10.69 17.5217 9.08997 18.5817Z" stroke="#fff" stroke-width="1.5" stroke-linecap="round" stroke-linejoin="round"/>
</svg>
